<?xml version="1.0" encoding="UTF-8" standalone="no"?>
<!-- Created with Inkscape (http://www.inkscape.org/) -->

<svg
   width="256mm"
   height="256mm"
   viewBox="0 0 256 256"
   version="1.1"
   id="svg1"
   xml:space="preserve"
   xmlns="http://www.w3.org/2000/svg"
   xmlns:svg="http://www.w3.org/2000/svg"><defs
     id="defs1" /><path
     style="fill:#90ee90;fill-opacity:1;stroke-width:1.49819"
     d="m 126.63757,247.4118 -0.88347,-0.34206 -3.67511,-2.46464 -3.67512,-2.46463 -4.16219,-2.9703 -4.16219,-2.97031 -5.94597,-4.38671 -5.945975,-4.38672 -20.018127,-15.04649 -20.018124,-15.04647 -14.468542,-10.88082 -14.468545,-10.88081 -0.113983,-0.63881 -0.113983,-0.63884 0.635782,-6.14185 0.635782,-6.14186 0.370884,-4.95497 0.370885,-4.95499 0.386469,-1.38739 0.38647,-1.38741 0.411856,-6.14417 0.411859,-6.14417 0.395206,-3.36939 0.395202,-3.36937 0.402665,-4.1622 0.402663,-4.16218 0.382991,-4.16219 0.382988,-4.16217 0.44198,-3.96399 0.441978,-3.96399 0.521269,-5.54958 0.521269,-5.549563 0.430327,-5.153198 0.430325,-5.153173 0.416486,-5.549583 0.416487,-5.549569 0.181728,-0.892778 0.181728,-0.89276 88.48818,0.09993 88.48819,0.09993 0.29787,2.576588 0.29787,2.576586 0.79391,9.909955 0.79391,9.909956 1.39297,14.864949 1.39297,14.86494 0.57996,6.14416 0.57997,6.14419 0.7831,8.12617 0.78311,8.12617 0.62566,6.54058 0.62565,6.54057 0.37915,3.36938 0.37915,3.36939 0.003,0.2688 0.003,0.26883 -13.97306,10.62025 -13.97303,10.62023 -6.73877,5.11464 -6.73877,5.11466 -12.28835,9.18947 -12.28836,9.18948 -8.12617,5.94925 -8.12616,5.94926 -6.14418,4.36215 -6.14418,4.36213 -1.78379,1.02474 -1.78381,1.02475 z m 36.85064,-55.65103 0.18554,-0.97061 -0.14532,-31.63316 -0.14533,-31.63319 -0.42173,-2.90189 -0.42171,-2.90189 -1.30888,-3.24228 -1.30888,-3.24229 -0.92036,-1.58558 -0.92036,-1.58561 -1.44588,-1.98198 -1.44586,-1.98199 -2.6312,-2.45954 -2.63119,-2.45953 -2.3615,-1.60366 -2.36148,-1.603656 -2.69729,-1.337157 -2.69728,-1.337157 -1.982,-0.631436 -1.982,-0.631414 -2.57658,-0.406719 -2.57659,-0.406698 -3.83002,-0.0034 -3.83003,-0.0034 -2.90875,0.56872 -2.90875,0.568709 -2.35414,0.823085 -2.35413,0.823083 -2.20445,1.241283 -2.20445,1.241297 -2.22904,1.71179 -2.22902,1.71179 -3.12529,3.34038 -3.125285,3.34038 -1.738721,3.03887 -1.73872,3.03889 -0.936179,2.57916 -0.93618,2.57915 -0.592447,3.39736 -0.592449,3.39738 v 32.05634 32.05636 h 36.224261 36.22424 z m -49.56364,-12.98263 -0.47567,-0.47568 v -1.21163 -1.21164 l 0.43884,-1.38477 0.43887,-1.38479 0.5374,-2.97298 0.5374,-2.97299 0.82133,-3.96398 0.82135,-3.96398 0.34709,-2.07147 0.3471,-2.07147 0.59312,-2.48712 0.59313,-2.48711 0.23341,-1.64448 0.23344,-1.6445 -1.88116,-1.20724 -1.88115,-1.20723 -1.2414,-1.31046 -1.24139,-1.31047 -1.07886,-1.74171 -1.07887,-1.74172 -0.78163,-2.22226 -0.78163,-2.22226 -0.0185,-3.7658 -0.0185,-3.76579 0.87298,-2.66799 0.87298,-2.66799 1.88273,-2.58246 1.88273,-2.58248 1.78341,-1.38944 1.78341,-1.38945 2.36809,-0.96223 2.36812,-0.96225 2.35733,-0.25908 2.35735,-0.25907 2.50119,0.41055 2.50118,0.41054 2.15755,0.98775 2.15753,0.98776 2.1679,2.0503 2.16789,2.0503 1.1696,1.83602 1.16962,1.83605 0.86628,2.57659 0.86628,2.57658 0.005,3.4238 0.005,3.4238 -0.87249,2.62183 -0.87249,2.6218 -1.68059,2.27876 -1.68061,2.27874 -1.42224,1.24472 -1.42222,1.2447 -1.21294,0.71651 -1.21295,0.7165 0.1891,0.81358 0.18909,0.81359 2.5295,12.88295 2.52948,12.88294 0.27215,1.65502 0.2721,1.65503 -0.44017,0.82246 -0.44019,0.82249 H 127.38822 114.4003 Z M 29.814875,35.460272 l 0.0061,-24.081205 0.310448,-0.488746 0.310449,-0.488745 20.7917,-0.01349 20.791697,-0.01349 0.693699,0.0067 0.693698,0.0067 V 23.270939 36.15389 l 14.17124,0.0054 14.171254,0.0054 0.79279,0.197941 0.7928,0.197941 0.58897,-0.383618 0.58898,-0.38362 -0.10245,-12.475558 -0.10245,-12.475558 0.33401,-0.206436 0.33402,-0.206435 22.56696,-0.06445 22.56693,-0.06445 0.10438,12.899846 0.10437,12.899847 0.88652,0.125969 0.88652,0.125967 14.56216,-0.108556 14.56216,-0.108556 0.10461,-12.774386 0.1046,-12.774385 21.00911,-0.1982 21.00913,-0.198197 0.69369,0.145325 0.69369,0.145326 V 35.010996 59.54148 H 127.3228 29.808776 Z"
     id="path1" /></svg>
